<?xml version="1.0" standalone="no"?>
<!DOCTYPE svg PUBLIC "-//W3C//DTD SVG 20010904//EN"
 "http://www.w3.org/TR/2001/REC-SVG-20010904/DTD/svg10.dtd">
<svg version="1.0" xmlns="http://www.w3.org/2000/svg"
 width="346.000000pt" height="311.000000pt" viewBox="0 0 346.000000 311.000000"
 preserveAspectRatio="xMidYMid meet">

<g transform="translate(0.000000,311.000000) scale(0.100000,-0.100000)"
fill="none" stroke="#FFFFFF">
<path d="M0 1555 l0 -1555 1730 0 1730 0 0 1555 0 1555 -1730 0 -1730 0 0
-1555z m1581 1055 c41 -22 14 -100 -35 -100 -13 0 -44 -23 -81 -60 l-59 -60
69 -70 69 -70 72 0 c50 0 82 5 102 17 42 24 82 6 82 -36 0 -53 -45 -77 -86
-46 -13 10 -45 14 -104 15 l-85 0 -95 95 -95 95 83 83 c45 46 80 86 76 90 -4
3 1 18 10 32 17 26 45 32 77 15z m270 0 c41 -22 15 -100 -34 -100 -28 0 -87
-58 -87 -86 0 -45 -47 -68 -84 -41 -36 27 -16 97 27 97 28 0 97 68 97 95 0 40
39 57 81 35z m-661 -130 c24 -24 26 -53 5 -70 -10 -8 -15 -31 -15 -69 l0 -57
128 -127 129 -127 102 0 c78 0 106 4 117 15 23 22 71 19 84 -6 17 -31 8 -62
-23 -77 -24 -12 -31 -11 -52 2 -19 12 -51 16 -137 16 l-113 0 -142 142 -143
143 0 58 c0 36 -6 67 -16 82 -21 32 -14 67 16 82 33 17 37 16 60 -7z m804 9
c33 -16 39 -35 21 -72 -12 -24 -15 -74 -15 -251 l0 -221 -92 -87 -93 -88 -159
0 -159 0 -134 -132 -133 -132 0 -322 c0 -274 2 -323 15 -334 18 -15 20 -61 3
-78 -18 -18 -63 -14 -82 7 -17 19 -14 65 5 77 5 3 9 154 9 337 l0 332 147 147
148 148 160 0 160 0 78 76 77 76 0 208 c0 172 -3 210 -15 220 -23 19 -19 66 7
84 27 19 21 19 52 5z m-1026 -115 c25 -18 29 -56 7 -78 -11 -11 -15 -39 -15
-118 l0 -104 55 -54 55 -54 0 -252 c0 -211 2 -254 15 -264 32 -26 5 -90 -38
-90 -25 0 -57 28 -57 50 0 9 7 25 15 36 12 15 14 64 15 259 l0 241 -55 54 -55
54 0 112 c0 87 -4 119 -17 142 -16 28 -16 31 0 56 20 30 43 33 75 10z m1374
-41 c10 -9 18 -26 18 -39 0 -24 -33 -54 -59 -54 -8 0 -32 -17 -53 -37 l-38
-37 0 -110 0 -111 -72 -72 c-39 -40 -77 -87 -82 -105 -14 -43 -56 -60 -86 -33
-38 34 -16 95 34 95 15 0 46 24 89 69 l67 69 0 109 0 109 45 44 c27 26 45 53
45 67 0 23 33 53 59 53 8 0 23 -7 33 -17z m-1575 -139 c10 -16 10 -25 -2 -48
-8 -16 -15 -38 -15 -50 0 -27 75 -101 112 -110 29 -7 43 -34 33 -66 -16 -51
-91 -44 -101 9 -3 16 -26 48 -50 72 -36 35 -44 50 -44 80 0 20 -7 42 -15 49
-22 18 -19 66 6 84 25 17 56 9 76 -20z m1787 -120 c9 -8 16 -24 16 -35 0 -24
-34 -59 -58 -59 -9 0 -107 -90 -217 -200 l-200 -200 -259 0 -259 0 -98 -97
-99 -97 0 -432 c0 -371 2 -433 15 -444 20 -16 19 -54 -1 -74 -37 -37 -101 -3
-88 48 3 14 10 29 15 32 5 3 9 200 9 447 l0 442 112 112 113 113 260 0 260 0
192 192 c118 117 193 200 193 212 0 47 62 73 94 40z m-1323 -15 c11 -11 18
-26 15 -34 -2 -7 6 -23 20 -36 20 -19 24 -32 24 -84 0 -45 -5 -69 -19 -86 -10
-13 -22 -37 -28 -53 -14 -43 -37 -55 -71 -36 -45 26 -38 100 10 100 33 0 58
29 58 67 0 45 -16 73 -41 73 -36 0 -59 19 -59 50 0 56 52 78 91 39z m-543
-101 c7 -7 12 -21 12 -33 0 -13 39 -59 105 -125 l105 -105 0 -165 0 -165 85
-85 85 -85 0 -304 c0 -266 2 -307 16 -322 20 -23 12 -64 -16 -79 -49 -26 -104
44 -66 83 14 13 16 57 16 309 l0 293 -90 90 -90 90 0 165 0 165 -87 87 c-48
49 -96 88 -106 88 -36 0 -57 19 -57 53 0 40 15 57 50 57 14 0 31 -5 38 -12z
m2013 -68 c23 -13 26 -62 4 -80 -11 -9 -15 -35 -15 -104 l0 -92 -75 -74 c-41
-41 -73 -80 -71 -86 8 -21 -24 -54 -53 -54 -34 0 -51 17 -51 52 0 28 43 68 57
54 4 -4 38 24 75 61 l68 67 0 77 c0 47 -6 87 -14 104 -30 58 18 105 75 75z
m-193 -152 c16 -16 15 -63 -1 -77 -8 -6 -24 -12 -36 -14 -12 -2 -79 -60 -149
-130 l-127 -127 -226 0 c-189 0 -229 -2 -239 -15 -27 -33 -90 -4 -90 41 0 14
10 30 26 41 25 16 28 16 56 0 25 -15 61 -17 242 -17 l212 0 123 124 c72 73
120 129 116 136 -20 32 64 67 93 38z m-1827 -48 c10 -6 19 -21 19 -34 0 -12
11 -33 25 -46 22 -21 25 -32 25 -91 0 -41 4 -69 11 -71 15 -5 15 -54 -1 -73
-14 -17 -43 -19 -71 -5 -23 13 -26 62 -4 80 9 8 15 30 15 60 0 52 -12 68 -64
85 -23 7 -32 17 -34 37 -7 56 31 83 79 58z"/>
<path d="M1530 2565 c0 -10 7 -15 18 -13 21 4 19 22 -2 26 -10 2 -16 -3 -16
-13z"/>
<path d="M1730 2226 c0 -10 9 -16 21 -16 24 0 21 23 -4 28 -10 2 -17 -3 -17
-12z"/>
<path d="M1800 2566 c0 -10 9 -16 21 -16 24 0 21 23 -4 28 -10 2 -17 -3 -17
-12z"/>
<path d="M1671 2440 c-16 -9 -6 -30 15 -30 15 0 20 25 6 34 -4 2 -14 1 -21 -4z"/>
<path d="M1137 2446 c-3 -8 0 -17 8 -19 15 -7 25 1 25 20 0 17 -26 17 -33 -1z"/>
<path d="M1676 2015 c-3 -9 1 -18 10 -22 19 -7 28 2 21 22 -8 19 -23 19 -31 0z"/>
<path d="M1954 2449 c-10 -17 13 -36 27 -22 12 12 4 33 -11 33 -5 0 -12 -5
-16 -11z"/>
<path d="M1190 816 c0 -8 4 -17 8 -20 13 -8 35 11 28 23 -10 16 -36 14 -36 -3z"/>
<path d="M920 2337 c0 -19 10 -27 25 -20 17 6 8 33 -11 33 -8 0 -14 -6 -14
-13z"/>
<path d="M1032 1414 c4 -21 22 -23 26 -1 2 10 -3 17 -13 17 -10 0 -15 -6 -13
-16z"/>
<path d="M2290 2295 c0 -8 7 -15 15 -15 8 0 15 7 15 15 0 8 -7 15 -15 15 -8 0
-15 -7 -15 -15z"/>
<path d="M1991 1786 c-12 -14 -5 -26 16 -26 15 0 18 26 4 34 -5 3 -14 0 -20
-8z"/>
<path d="M704 2179 c-10 -17 13 -36 27 -22 12 12 4 33 -11 33 -5 0 -12 -5 -16
-11z"/>
<path d="M830 1940 c0 -11 7 -20 15 -20 8 0 15 9 15 20 0 11 -7 20 -15 20 -8
0 -15 -9 -15 -20z"/>
<path d="M2506 2053 c-12 -12 -6 -33 9 -33 8 0 15 6 15 14 0 17 -14 28 -24 19z"/>
<path d="M1340 475 c0 -10 7 -15 18 -13 21 4 19 22 -2 26 -10 2 -16 -3 -16
-13z"/>
<path d="M1177 2034 c-9 -10 2 -24 19 -24 8 0 14 7 14 15 0 15 -21 21 -33 9z"/>
<path d="M1181 1790 c-16 -9 -6 -30 15 -30 15 0 20 25 6 34 -4 2 -14 1 -21 -4z"/>
<path d="M641 1930 c-16 -9 -6 -30 15 -30 15 0 20 25 6 34 -4 2 -14 1 -21 -4z"/>
<path d="M1046 553 c-12 -12 -6 -33 9 -33 8 0 15 6 15 14 0 17 -14 28 -24 19z"/>
<path d="M2650 1845 c0 -10 7 -15 18 -13 21 4 19 22 -2 26 -10 2 -16 -3 -16
-13z"/>
<path d="M2476 1462 c-8 -13 11 -35 23 -28 16 10 14 36 -3 36 -8 0 -17 -4 -20
-8z"/>
<path d="M2454 1709 c-3 -6 -1 -16 5 -22 9 -9 14 -8 21 3 9 15 4 30 -10 30 -5
0 -12 -5 -16 -11z"/>
<path d="M1680 1415 c0 -10 7 -15 18 -13 21 4 19 22 -2 26 -10 2 -16 -3 -16
-13z"/>
<path d="M632 1648 c7 -19 38 -22 38 -4 0 10 -9 16 -21 16 -12 0 -19 -5 -17
-12z"/>
<path d="M707 1424 c-3 -3 -3 -12 0 -19 6 -17 33 -8 33 11 0 14 -21 19 -33 8z"/>
</g>
</svg>
