<?xml version="1.0" encoding="UTF-8" standalone="no"?>
<!DOCTYPE svg PUBLIC "-//W3C//DTD SVG 20010904//EN"
              "http://www.w3.org/TR/2001/REC-SVG-20010904/DTD/svg10.dtd">

<svg xmlns="http://www.w3.org/2000/svg"
     width="8.09375in" height="7.67708in"
     viewBox="0 0 777 737">
  <path id="Selection"
        fill="none" stroke="White" stroke-width="12"
        d="M 0.00,0.00
           C 0.00,0.00 777.00,0.00 777.00,0.00
             777.00,0.00 777.00,737.00 777.00,737.00
             777.00,737.00 0.00,737.00 0.00,737.00
             0.00,737.00 0.00,0.00 0.00,0.00 Z
           M 160.00,46.00
           C 153.90,44.52 147.27,44.93 141.00,45.00
             112.31,45.34 85.50,71.18 69.86,93.00
             54.74,114.09 44.31,139.83 44.00,166.00
             43.89,175.70 43.92,185.39 45.44,195.00
             50.64,227.90 74.75,267.12 100.00,288.25
             119.94,304.93 143.04,317.28 168.00,324.58
             176.77,327.14 191.97,334.10 195.44,321.00
             196.08,318.59 196.00,315.50 196.00,313.00
             196.00,313.00 196.00,211.00 196.00,211.00
             195.99,207.52 196.27,204.09 194.26,201.04
             190.96,196.03 186.09,195.74 181.00,193.91
             181.00,193.91 166.00,186.69 166.00,186.69
             152.60,179.33 138.52,163.38 133.06,149.00
             124.09,125.35 124.52,99.82 138.06,78.00
             143.77,68.81 158.25,54.57 160.00,46.00 Z
           M 607.00,45.98
           C 608.49,53.13 612.24,55.53 616.49,61.00
             620.62,66.32 625.86,75.00 629.14,81.00
             641.40,103.46 640.48,131.19 630.14,154.00
             622.34,171.19 609.48,181.43 593.00,189.75
             589.54,191.50 584.45,194.41 581.00,195.53
             576.31,197.06 572.00,196.54 568.21,200.23
             563.94,204.37 564.01,208.52 564.00,214.00
             564.00,214.00 564.00,312.00 564.00,312.00
             564.00,314.53 563.89,317.59 564.65,320.00
             569.28,334.76 583.70,327.84 594.00,325.12
             624.28,317.12 640.31,308.19 665.00,289.26
             672.40,283.59 674.95,280.62 681.09,274.00
             699.98,253.63 709.42,235.84 716.13,209.00
             718.21,200.66 719.99,192.64 720.00,184.00
             720.00,184.00 720.00,164.00 720.00,164.00
             719.89,154.64 716.46,135.85 713.30,127.00
             707.61,111.05 694.91,91.93 683.00,80.00
             663.85,60.82 646.08,47.27 618.00,45.98
             612.13,45.69 613.45,44.99 607.00,45.98 Z
           M 125.00,66.00
           C 123.85,72.13 120.43,77.42 117.78,83.00
             116.77,85.12 115.55,88.68 113.59,89.98
             109.95,92.37 98.02,89.97 100.17,83.99
             100.97,81.74 104.19,78.98 106.00,77.44
             111.62,72.67 117.60,67.41 125.00,66.00 Z
           M 643.00,71.00
           C 649.89,71.78 654.78,76.32 659.98,80.66
             661.96,82.32 665.07,84.82 663.83,87.78
             662.34,91.34 653.68,93.82 650.65,91.25
             647.05,88.21 643.23,75.76 643.00,71.00 Z
           M 504.00,489.00
           C 504.00,489.00 512.60,512.00 512.60,512.00
             513.76,514.93 516.68,521.07 516.38,524.00
             516.10,526.63 513.80,529.82 512.33,532.00
             509.07,536.83 499.81,549.42 495.00,551.83
             490.72,553.97 486.48,551.93 481.04,555.70
             474.75,560.06 469.06,572.79 466.44,580.00
             460.95,595.08 462.88,601.04 461.67,608.00
             461.67,608.00 458.44,620.00 458.44,620.00
             457.31,627.04 459.31,632.97 455.57,636.28
             452.49,638.99 446.84,638.78 443.00,639.17
             443.00,639.17 416.00,641.75 416.00,641.75
             412.92,642.27 405.70,644.60 403.23,643.53
             399.49,641.90 400.01,636.35 400.00,633.00
             400.00,633.00 400.00,130.00 400.00,130.00
             400.01,126.47 399.52,121.21 403.23,119.26
             406.04,117.79 413.76,119.95 417.00,120.60
             426.09,122.43 444.66,127.14 453.00,130.45
             463.38,134.57 469.29,137.15 479.00,142.86
             481.40,144.27 486.86,147.38 487.68,150.09
             488.83,153.93 483.33,156.70 484.24,163.00
             484.87,167.32 488.56,170.48 493.00,169.53
             498.56,168.34 499.43,162.32 503.10,162.33
             505.97,162.34 511.91,168.04 514.00,170.04
             517.79,173.66 530.92,185.98 532.40,190.00
             533.12,191.94 533.00,194.91 533.00,197.00
             533.00,197.00 533.00,276.00 533.00,276.00
             533.00,280.25 533.69,293.72 531.83,296.77
             530.47,298.99 528.45,299.65 526.00,299.89
             513.96,301.08 516.80,291.59 509.07,281.00
             502.16,271.53 491.77,265.39 480.00,264.52
             461.14,263.12 444.22,282.05 443.21,300.00
             442.71,308.79 448.17,320.67 454.17,326.86
             467.75,341.03 491.03,339.64 504.96,326.86
             512.44,319.94 513.49,313.47 517.21,310.74
             518.94,309.47 520.93,309.11 523.00,308.76
             531.07,307.42 532.89,310.43 533.00,318.00
             533.00,318.00 533.00,339.00 533.00,339.00
             532.75,352.33 520.44,347.66 512.00,348.21
             504.51,348.70 495.83,354.00 492.85,361.00
             490.09,367.48 490.96,384.30 491.00,392.00
             491.01,394.23 490.87,397.78 492.17,399.67
             494.60,403.19 501.00,400.96 502.83,397.86
             504.21,395.50 504.00,391.68 504.00,389.00
             504.00,389.00 504.00,372.00 504.00,372.00
             504.02,363.94 504.87,360.17 514.00,360.00
             521.43,359.87 540.79,362.23 545.15,355.87
             547.55,352.36 547.05,345.24 547.00,341.00
             547.00,341.00 546.00,326.00 546.00,326.00
             546.00,326.00 546.00,190.00 546.00,190.00
             545.98,175.17 540.00,172.00 530.00,162.00
             513.16,145.16 503.55,138.19 483.00,126.58
             415.82,88.61 325.38,93.64 263.00,139.15
             248.19,149.96 235.28,161.06 224.42,176.00
             217.34,185.75 214.02,188.63 214.00,201.00
             214.00,201.00 214.00,359.00 214.00,359.00
             214.02,372.77 220.29,375.42 230.00,384.05
             230.00,384.05 275.00,421.25 275.00,421.25
             279.70,425.13 291.27,433.78 293.26,439.00
             294.13,441.28 294.00,444.55 294.00,447.00
             294.00,447.00 294.00,460.00 294.00,460.00
             294.00,460.00 294.82,470.00 294.82,470.00
             294.82,470.00 294.00,482.00 294.00,482.00
             294.00,482.00 294.00,544.00 294.00,544.00
             294.00,547.89 292.06,564.06 299.78,561.34
             304.11,559.82 303.99,549.80 304.00,546.00
             304.00,546.00 304.00,526.00 304.00,526.00
             304.00,526.00 303.00,510.00 303.00,510.00
             303.00,510.00 303.00,478.00 303.00,478.00
             303.00,478.00 304.00,463.00 304.00,463.00
             304.00,463.00 304.00,453.00 304.00,453.00
             303.96,450.18 302.85,434.74 301.98,433.00
             299.77,428.59 289.17,419.99 285.00,416.42
             285.00,416.42 249.00,386.41 249.00,386.41
             243.58,381.91 227.94,369.78 225.74,364.00
             224.87,361.72 225.00,358.45 225.00,356.00
             225.00,356.00 225.00,245.00 225.00,245.00
             225.00,245.00 224.00,231.00 224.00,231.00
             224.00,231.00 224.00,204.00 224.00,204.00
             224.06,192.82 228.86,189.59 237.00,182.58
             238.78,181.04 243.08,176.48 245.57,177.34
             248.41,178.32 248.00,184.61 248.00,187.00
             248.00,187.00 248.00,357.00 248.00,357.00
             248.00,359.53 247.89,362.59 248.65,365.00
             250.73,371.65 263.48,380.30 269.00,385.15
             269.00,385.15 306.00,415.92 306.00,415.92
             309.93,419.21 319.76,426.89 321.83,431.00
             323.13,433.61 323.99,447.47 324.00,451.00
             324.00,451.00 324.00,619.00 324.00,619.00
             324.00,621.24 323.86,624.87 324.74,626.89
             326.13,630.12 329.73,631.48 331.83,628.55
             333.20,626.64 333.04,622.33 332.99,620.00
             332.99,620.00 332.00,606.00 332.00,606.00
             332.00,606.00 332.00,488.00 332.00,488.00
             332.00,488.00 332.00,433.00 332.00,433.00
             331.82,423.19 321.81,416.99 315.00,411.13
             315.00,411.13 275.00,377.27 275.00,377.27
             265.32,368.97 259.02,366.47 259.00,353.00
             259.00,353.00 259.00,213.00 259.00,213.00
             259.00,213.00 258.05,203.00 258.05,203.00
             258.05,203.00 258.05,190.00 258.05,190.00
             258.05,190.00 259.00,177.00 259.00,177.00
             259.03,173.96 258.67,166.48 259.60,164.00
             261.42,159.11 272.43,152.02 277.00,149.00
             281.44,146.07 294.22,135.68 295.95,146.01
             295.95,146.01 295.95,151.00 295.95,151.00
             295.95,151.00 295.95,226.00 295.95,226.00
             295.99,229.53 296.27,232.85 294.26,235.96
             291.76,239.83 286.74,242.04 284.31,247.00
             282.82,250.06 283.01,253.68 283.00,257.00
             283.00,257.00 283.00,355.00 283.00,355.00
             283.19,364.88 293.13,370.62 300.00,376.42
             300.00,376.42 338.00,408.73 338.00,408.73
             347.37,416.65 352.98,417.86 353.00,431.00
             353.00,431.00 353.00,620.00 353.00,620.00
             353.00,622.24 352.86,625.87 353.74,627.89
             355.38,631.69 359.56,632.41 361.83,628.77
             363.22,626.53 363.00,622.59 363.00,620.00
             363.00,620.00 363.00,426.00 363.00,426.00
             363.00,423.55 363.13,420.28 362.26,418.00
             360.34,412.97 350.42,405.93 346.00,402.13
             346.00,402.13 309.00,371.08 309.00,371.08
             304.07,366.95 294.56,359.09 292.65,353.00
             291.89,350.59 292.00,347.53 292.00,345.00
             292.00,345.00 292.00,259.00 292.00,259.00
             292.18,245.43 299.69,247.23 303.83,239.00
             305.21,236.24 305.00,233.00 305.00,230.00
             305.00,230.00 305.00,210.00 305.00,210.00
             305.00,210.00 304.00,195.00 304.00,195.00
             304.00,195.00 304.00,150.00 304.00,150.00
             304.07,144.47 304.44,137.32 309.11,133.65
             311.89,131.45 319.43,128.85 323.00,127.67
             335.32,123.62 348.21,121.57 361.00,119.73
             365.60,119.07 375.83,116.99 379.89,118.74
             384.52,120.73 383.99,125.82 384.00,130.00
             384.00,130.00 384.00,298.00 384.00,298.00
             384.00,298.00 384.00,392.00 384.00,392.00
             384.00,392.00 383.00,407.00 383.00,407.00
             383.00,407.00 383.00,413.00 383.00,413.00
             383.00,413.00 384.00,428.00 384.00,428.00
             384.00,428.00 384.00,616.00 384.00,616.00
             384.00,616.00 383.08,627.00 383.08,627.00
             383.08,627.00 383.99,638.00 383.99,638.00
             383.97,640.63 383.93,643.58 381.69,645.39
             378.30,648.11 370.92,644.23 367.00,643.15
             350.84,638.73 347.01,640.18 331.00,640.00
             325.48,639.93 317.31,638.96 314.09,633.89
             312.08,630.74 311.57,623.55 309.91,619.00
             309.91,619.00 306.13,610.28 306.13,610.28
             306.13,610.28 305.54,599.00 305.54,599.00
             303.88,589.61 296.97,568.97 290.79,562.04
             286.54,557.27 281.19,554.96 276.00,551.48
             265.17,544.22 255.18,533.99 255.18,520.00
             255.18,509.53 265.64,490.39 271.78,482.00
             276.11,476.10 283.09,473.39 279.82,467.09
             277.83,463.26 271.69,460.34 268.18,456.82
             263.08,451.69 261.92,445.13 254.96,439.53
             250.53,435.95 244.95,434.39 240.00,431.69
             232.47,427.58 225.89,422.53 220.30,416.00
             209.19,403.02 209.03,395.33 209.00,379.00
             208.99,372.57 209.31,363.93 201.00,363.11
             198.07,362.82 194.07,363.08 192.78,366.23
             191.66,368.94 193.50,373.93 193.92,377.00
             193.92,377.00 193.92,397.00 193.92,397.00
             194.24,416.72 214.13,435.96 230.00,445.40
             230.00,445.40 244.82,452.85 244.82,452.85
             247.63,454.98 250.78,460.03 253.30,463.00
             254.79,464.76 258.09,467.95 258.75,470.00
             259.86,473.44 253.36,481.73 251.40,485.00
             245.29,495.17 240.15,504.81 240.00,517.00
             239.81,533.69 243.69,546.51 257.00,557.54
             257.00,557.54 270.00,567.64 270.00,567.64
             274.26,570.48 278.07,571.49 281.01,576.02
             283.90,580.47 289.56,594.59 290.54,600.00
             290.54,600.00 291.81,614.00 291.81,614.00
             293.26,621.28 295.39,623.29 296.47,628.00
             297.75,633.58 295.65,637.46 301.93,646.00
             312.29,660.10 329.64,656.98 345.00,657.00
             364.09,657.03 375.45,666.51 388.00,665.96
             393.64,665.71 396.74,663.63 402.00,662.15
             409.37,660.08 423.53,657.09 431.00,657.00
             440.47,656.89 457.12,657.06 464.96,651.35
             474.69,644.27 472.09,635.03 473.18,626.00
             473.18,626.00 476.71,611.00 476.71,611.00
             476.71,611.00 477.29,603.00 477.29,603.00
             478.04,596.93 482.29,579.66 485.70,575.11
             489.86,569.55 495.61,571.73 504.00,566.44
             513.62,560.38 519.95,549.47 525.95,540.00
             528.34,536.22 532.18,530.38 532.79,526.00
             533.62,520.01 530.57,516.23 528.45,511.00
             528.45,511.00 516.87,478.11 516.87,478.11
             511.74,470.93 506.33,474.89 503.00,481.00
             499.98,479.35 496.55,477.52 493.00,477.49
             479.94,477.36 481.88,497.26 496.00,493.57
             498.81,492.84 501.56,490.60 504.00,489.00 Z
           M 85.17,101.74
           C 91.38,100.30 97.24,104.22 103.00,106.31
             105.95,107.38 109.30,108.21 110.98,111.13
             112.96,114.59 112.85,129.65 109.69,132.26
             107.23,134.29 103.03,134.00 100.00,134.00
             100.00,134.00 76.00,134.00 76.00,134.00
             67.62,133.84 66.88,130.18 69.88,123.00
             72.42,116.91 79.67,105.12 85.17,101.74 Z
           M 674.00,101.83
           C 676.38,101.25 677.65,100.86 679.99,101.83
             684.12,104.09 692.77,117.52 695.01,122.00
             696.26,124.49 698.56,129.96 696.94,132.57
             695.16,135.43 689.93,135.00 687.00,135.00
             687.00,135.00 662.00,135.00 662.00,135.00
             659.64,134.96 656.54,135.06 654.74,133.26
             651.94,130.47 652.41,114.36 654.74,111.22
             656.98,108.20 669.97,103.10 674.00,101.83 Z
           M 347.00,155.00
           C 349.25,153.78 350.85,153.01 352.49,150.89
             362.54,137.96 337.03,130.07 338.13,146.00
             338.22,147.36 338.52,148.73 339.17,149.94
             340.49,152.37 341.71,152.85 344.00,154.00
             342.18,156.42 339.05,159.48 338.01,162.04
             333.36,173.46 351.48,178.63 352.48,166.00
             352.61,164.31 352.13,162.53 351.43,161.00
             350.30,158.57 348.74,156.96 347.00,155.00 Z
           M 431.04,140.51
           C 422.24,144.63 425.41,154.28 432.00,155.67
             440.63,157.49 443.70,144.90 436.87,141.02
             434.77,139.83 433.24,140.19 431.04,140.51 Z
           M 113.00,150.77
           C 121.63,152.27 123.49,164.75 120.43,168.21
             118.08,170.87 109.52,174.37 106.00,175.68
             106.00,175.68 77.00,186.60 77.00,186.60
             73.51,187.99 65.81,191.64 62.28,189.74
             58.58,187.75 59.01,181.57 59.00,178.00
             59.00,178.00 59.84,161.00 59.84,161.00
             60.16,158.05 59.95,154.74 62.43,152.60
             65.34,150.08 74.73,151.99 79.00,152.00
             79.00,152.00 96.00,152.00 96.00,152.00
             96.00,152.00 113.00,150.77 113.00,150.77 Z
           M 649.13,151.19
           C 653.32,150.38 663.07,152.90 668.00,153.37
             674.89,154.52 681.17,153.82 688.00,153.37
             691.32,152.85 698.79,152.39 701.30,154.74
             704.20,157.44 704.95,172.63 705.00,177.00
             705.04,180.35 705.86,188.88 702.57,190.65
             699.47,192.32 691.20,188.28 688.00,187.00
             688.00,187.00 656.00,173.24 656.00,173.24
             652.92,171.73 645.62,168.63 644.04,165.79
             641.72,161.62 645.80,153.72 649.13,151.19 Z
           M 425.00,176.45
           C 412.69,181.36 419.22,197.31 429.98,194.68
             438.84,192.52 438.50,175.13 425.00,176.45 Z
           M 633.00,179.73
           C 635.19,179.34 635.68,179.01 638.00,179.73
             638.00,179.73 662.00,193.25 662.00,193.25
             664.51,194.50 669.67,196.66 670.87,199.21
             671.99,201.58 670.65,203.98 669.44,206.00
             667.07,209.95 659.47,220.34 655.00,221.18
             650.47,222.02 643.13,213.03 640.00,210.04
             630.72,201.16 616.29,194.00 628.02,183.11
             630.01,181.26 630.68,180.95 633.00,179.73 Z
           M 354.06,181.61
           C 350.06,184.04 350.09,185.48 350.00,190.00
             350.00,190.00 350.00,231.00 350.00,231.00
             350.00,231.00 350.00,380.00 350.00,380.00
             350.00,382.31 349.80,385.77 351.02,387.75
             353.42,391.69 359.52,391.39 361.83,387.75
             363.22,385.51 363.00,381.58 363.00,379.00
             363.00,379.00 363.00,227.00 363.00,227.00
             363.00,227.00 363.00,191.00 363.00,191.00
             362.96,184.40 361.77,180.36 354.06,181.61 Z
           M 129.00,181.66
           C 131.02,181.32 131.88,180.92 134.00,181.66
             137.31,182.69 146.14,189.00 145.26,193.01
             144.68,195.63 140.89,199.10 139.00,201.00
             135.47,204.56 121.40,219.40 118.00,220.72
             112.12,223.01 103.48,211.04 100.07,207.00
             98.31,204.92 95.77,202.16 97.13,199.21
             98.45,196.34 104.18,194.55 107.00,193.40
             119.55,188.27 122.11,184.73 129.00,181.66 Z
           M 469.00,185.30
           C 460.28,187.00 453.02,191.70 449.19,200.00
             441.50,216.64 453.33,237.53 472.00,237.99
             477.57,238.12 481.95,237.60 487.00,235.01
             499.88,228.38 502.20,209.55 494.87,198.00
             489.05,188.84 479.72,184.33 469.00,185.30 Z
           M 471.00,199.77
           C 475.91,199.88 479.30,200.78 482.30,205.04
             487.48,212.39 483.19,221.92 474.00,222.61
             460.88,223.58 455.62,202.77 471.00,199.77 Z
           M 604.15,202.84
           C 610.29,202.43 615.39,208.60 620.00,212.12
             620.00,212.12 640.00,226.85 640.00,226.85
             643.14,229.13 648.07,232.87 652.00,233.15
             658.10,233.58 665.83,227.94 670.00,223.96
             674.81,219.36 677.26,216.15 681.27,211.02
             685.34,205.82 690.48,204.03 695.69,209.39
             698.77,212.57 697.86,216.23 696.64,220.00
             695.01,225.02 687.28,240.42 684.38,245.00
             683.16,246.92 681.44,249.74 678.96,250.09
             675.32,250.60 667.83,241.59 661.70,249.23
             655.82,256.55 664.63,261.07 663.63,267.00
             662.51,273.64 647.73,283.15 642.00,286.60
             640.07,287.76 636.26,290.22 634.10,290.45
             628.29,291.06 627.66,276.20 626.63,272.00
             621.13,249.64 618.52,240.40 607.14,220.00
             604.47,215.22 597.81,206.90 604.15,202.84 Z
           M 160.00,206.00
           C 159.20,214.80 153.89,222.90 150.60,231.00
             145.96,242.47 140.83,258.87 138.40,271.00
             138.40,271.00 135.98,285.98 135.98,285.98
             135.52,288.45 135.00,290.79 131.89,290.59
             129.05,290.41 125.25,287.30 123.00,285.63
             117.76,281.72 103.59,272.27 102.54,266.00
             101.65,260.72 109.24,255.10 103.49,248.15
             97.59,241.00 91.51,249.48 86.04,246.94
             83.15,245.59 80.82,241.65 79.20,239.00
             79.20,239.00 69.09,219.00 69.09,219.00
             67.38,215.40 65.85,210.94 69.09,207.97
             70.58,206.88 73.40,205.62 75.00,205.11
             82.68,202.63 85.06,207.82 89.44,213.00
             94.68,219.20 107.28,232.86 116.00,232.49
             131.96,231.82 146.09,207.93 160.00,206.00 Z
           M 178.94,211.17
           C 179.25,211.23 180.11,210.89 181.26,211.84
             183.83,213.97 183.01,225.50 183.00,229.00
             183.00,229.00 182.00,246.00 182.00,246.00
             182.00,246.00 182.00,300.00 182.00,300.00
             182.00,302.46 182.37,307.34 180.26,309.00
             178.02,310.77 172.49,309.03 170.00,308.28
             162.27,305.96 151.58,303.44 151.04,294.00
             150.82,290.11 151.40,287.70 151.85,284.00
             154.17,264.52 159.70,249.04 167.14,231.00
             169.68,224.85 172.51,213.92 178.94,211.17 Z
           M 580.41,211.18
           C 580.66,211.08 581.76,210.21 583.63,211.18
             585.38,212.19 592.90,225.21 594.86,228.00
             604.03,241.10 611.06,266.09 613.42,282.00
             614.28,287.81 616.99,297.05 611.77,301.30
             609.60,303.07 602.92,305.07 600.00,305.98
             596.10,307.18 582.90,311.56 579.74,309.01
             577.09,306.87 578.00,295.52 578.00,292.00
             578.00,292.00 578.00,244.00 578.00,244.00
             578.00,244.00 578.00,220.00 578.00,220.00
             578.02,216.06 577.56,214.08 580.41,211.18 Z
           M 500.00,234.67
           C 487.81,236.29 490.93,250.61 500.00,250.84
             509.03,251.06 511.37,236.74 500.00,234.67 Z
           M 426.00,239.47
           C 412.56,244.58 419.22,260.30 429.98,257.68
             438.85,255.52 439.63,238.71 426.00,239.47 Z
           M 120.05,245.43
           C 110.31,249.80 118.04,261.63 124.94,259.22
             131.12,257.07 131.56,244.04 120.05,245.43 Z
           M 644.00,245.52
           C 632.83,248.09 636.35,261.71 646.00,260.81
             651.58,260.29 654.72,254.04 651.83,249.22
             650.04,246.24 647.15,245.74 644.00,245.52 Z
           M 474.00,275.52
           C 482.69,274.15 492.69,277.19 498.47,284.09
             510.72,298.71 505.96,322.22 486.00,326.48
             478.17,328.16 468.12,326.25 462.18,320.67
             453.21,312.24 452.54,292.40 460.53,283.18
             464.04,279.13 468.95,276.91 474.00,275.52 Z
           M 425.02,315.43
           C 412.48,320.62 420.22,336.01 429.96,333.31
             436.68,331.45 438.44,322.14 433.58,317.43
             430.98,314.90 428.32,315.01 425.02,315.43 Z
           M 451.02,357.60
           C 439.00,364.34 448.50,377.98 457.98,374.40
             463.64,372.26 464.64,363.50 460.57,359.43
             457.84,356.70 454.46,356.89 451.02,357.60 Z
           M 565.06,363.60
           C 563.56,364.52 563.06,364.39 562.02,366.15
             561.13,367.65 560.04,383.31 560.00,386.00
             559.95,391.00 560.45,396.16 558.95,401.00
             557.18,406.68 550.88,415.49 547.60,421.00
             542.11,430.24 539.44,436.75 536.42,447.00
             534.56,453.36 525.92,467.08 537.00,469.34
             547.86,471.54 551.29,453.22 553.67,446.00
             559.81,427.34 568.94,419.40 572.90,408.00
             575.76,399.77 574.90,391.54 575.00,383.00
             575.14,371.48 581.72,363.17 570.00,363.02
             567.85,362.99 567.11,363.15 565.06,363.60 Z
           M 427.00,394.53
           C 413.31,397.58 417.41,414.53 429.00,412.76
             438.36,411.33 439.10,395.61 427.00,394.53 Z
           M 484.00,402.37
           C 470.50,403.97 459.09,408.48 453.48,422.00
             443.31,446.47 466.16,471.48 486.00,469.81
             490.56,469.43 494.15,467.71 498.00,465.38
             527.14,447.75 516.01,402.65 484.00,402.37 Z
           M 477.00,414.48
           C 485.82,413.20 493.63,414.72 499.47,422.04
             508.67,433.58 503.76,453.87 487.00,457.31
             483.42,458.04 480.41,457.42 477.00,456.24
             456.35,449.12 456.82,419.89 477.00,414.48 Z
           M 426.02,454.60
           C 414.65,460.89 423.36,468.42 424.85,477.00
             424.85,477.00 424.85,497.00 424.85,497.00
             425.17,509.40 434.29,506.19 436.40,503.69
             438.16,501.60 437.98,498.56 437.86,496.00
             437.86,496.00 437.86,465.00 437.86,465.00
             437.47,457.42 433.86,453.02 426.02,454.60 Z
           M 456.00,509.38
           C 442.27,513.15 448.43,528.13 459.00,526.74
             469.82,525.31 468.36,509.24 456.00,509.38 Z
           M 430.02,530.61
           C 420.48,535.90 424.35,546.80 432.00,548.34
             444.19,550.79 445.10,528.21 430.02,530.61 Z
           M 433.00,574.68
           C 421.11,576.76 423.90,590.79 433.00,590.79
             442.19,590.79 444.22,576.66 433.00,574.68 Z
           M 429.02,612.45
           C 418.27,616.90 424.77,629.85 431.98,628.63
             439.43,627.37 441.62,611.20 429.02,612.45 Z" />
</svg>
